<svg data-name="Logo Black" xmlns="http://www.w3.org/2000/svg"
   xmlns:xlink="http://www.w3.org/1999/xlink"
  viewBox="0 0 206.21 55.61">
  <defs>
    <style>
      .cls-1 {
        fill: #1b1c1c;
      }

      .cls-2 {
        fill: url(#linear-gradient);
      }
    </style>
    <linearGradient id="linear-gradient" x1="148.4" y1="49.18" x2="200.68" y2="49.18"
      gradientTransform="translate(223.72 -125.37) rotate(90)" gradientUnits="userSpaceOnUse">
      <stop offset="0" stop-color="#ec1c24" />
      <stop offset="0.5" stop-color="#f6921e" />
      <stop offset="1" stop-color="#37b34a" />
    </linearGradient>
  </defs>
  <path class="cls-1"
    d="M5.75,21.44l-4-.48V15.2l4,.49V6.39h5.76v9.3l4-.49V21l-4,.48v12.9a3.25,3.25,0,0,0,.76,2.46,2.65,2.65,0,0,0,1.73.48h1.5V43H14a7.82,7.82,0,0,1-6-2.41,8.82,8.82,0,0,1-2.27-6.29V21.44Z"
    transform="translate(-1.73 -2.19)" />
  <path class="cls-1"
    d="M24.24,43H18.48V15.26h5.76v2.3a9.79,9.79,0,0,1,4.14-2l.28,0a15.35,15.35,0,0,1,2.83-.26V21c-2.7,0-4.65.88-5.86,2.66a9.56,9.56,0,0,0-1.39,5.47Z"
    transform="translate(-1.73 -2.19)" />
  <path class="cls-1"
    d="M53.05,15.23h5.76V43H53.05v-2.3a9.52,9.52,0,0,1-4.11,2l-.31.05a15.59,15.59,0,0,1-5.67,0l-.31-.05a11.5,11.5,0,0,1-7.2-4.57,14.75,14.75,0,0,1-2.67-9A14.94,14.94,0,0,1,35.45,20a11.41,11.41,0,0,1,7.28-4.5l.29-.09a16.86,16.86,0,0,1,5.55,0l.29.09a9.43,9.43,0,0,1,4.19,2Zm0,13.86a9.56,9.56,0,0,0-1.39-5.47C50.45,21.85,48.5,21,45.79,21s-4.68.89-5.89,2.66a9.87,9.87,0,0,0-1.36,5.5,9.69,9.69,0,0,0,1.36,5.47c1.21,1.8,3.17,2.69,5.89,2.69s4.66-.88,5.87-2.66a9.53,9.53,0,0,0,1.39-5.47Z"
    transform="translate(-1.73 -2.19)" />
  <path class="cls-1"
    d="M71.54,42.73a11.5,11.5,0,0,1-7.2-4.57,14.82,14.82,0,0,1-2.66-9A15,15,0,0,1,64.34,20a11.46,11.46,0,0,1,7.29-4.5l.28-.09a16.92,16.92,0,0,1,5.56,0l.28.09a9.41,9.41,0,0,1,4.2,2V2.19H87.7V43H82v-2.3a9.63,9.63,0,0,1-4.11,2l-.31.05a15.46,15.46,0,0,1-2.84.26,15.27,15.27,0,0,1-2.83-.26ZM74.69,21C72,21,70,21.85,68.8,23.62a9.87,9.87,0,0,0-1.37,5.5,9.69,9.69,0,0,0,1.37,5.47c1.2,1.8,3.17,2.69,5.89,2.69s4.66-.88,5.87-2.66A9.61,9.61,0,0,0,82,29.15v-.06a9.63,9.63,0,0,0-1.39-5.47Q78.74,21,74.69,21Z"
    transform="translate(-1.73 -2.19)" />
  <path class="cls-1"
    d="M116.6,31.62h-20q1.09,5.67,7.31,5.66a9.92,9.92,0,0,0,4.42-.93,5.86,5.86,0,0,0,2.7-2.64l5.15,2.53a11.17,11.17,0,0,1-4.81,5A15.1,15.1,0,0,1,103.87,43a12.71,12.71,0,0,1-9.67-3.8q-3.61-3.77-3.62-10.12T94.12,19a12.34,12.34,0,0,1,9.47-3.8,12.24,12.24,0,0,1,12.78,11,15.86,15.86,0,0,1,.23,2.7v2.75Zm-6.07-5.45Q109.32,21,103.59,21t-7,5.21Z"
    transform="translate(-1.73 -2.19)" />
  <path class="cls-1"
    d="M128.65,42.73a11.67,11.67,0,0,1-7.23-4.54,15,15,0,0,1-2.64-9.07,14.89,14.89,0,0,1,2.67-9.07,11.53,11.53,0,0,1,7.28-4.53l.29-.06a14.94,14.94,0,0,1,5.55,0l.26.06a9.59,9.59,0,0,1,4.22,2v-2.3h5.75V43.89q0,6.34-3.77,10.12a13.64,13.64,0,0,1-10.09,3.8A15.26,15.26,0,0,1,123.4,56a12,12,0,0,1-4.84-5.16l5.15-2.55a6.13,6.13,0,0,0,3.26,3,10.16,10.16,0,0,0,4,.71q8.12,0,8.11-8.16V40.74a9.52,9.52,0,0,1-4.14,2l-.31.05a14.9,14.9,0,0,1-2.81.26,15.35,15.35,0,0,1-2.83-.26ZM131.79,21q-4.08,0-5.89,2.69a9.56,9.56,0,0,0-1.39,5.47,9.59,9.59,0,0,0,1.39,5.5c1.21,1.8,3.17,2.69,5.89,2.69s4.66-.89,5.87-2.69a9.41,9.41,0,0,0,1.39-5.44v-.12a9.5,9.5,0,0,0-1.39-5.44C136.45,21.85,134.5,21,131.79,21Z"
    transform="translate(-1.73 -2.19)" />
  <path class="cls-1"
    d="M154.16,43H148.4V15.26h5.76v2.3a9.79,9.79,0,0,1,4.14-2l.28,0a15.38,15.38,0,0,1,2.84-.26V21c-2.71,0-4.66.88-5.87,2.66a9.56,9.56,0,0,0-1.39,5.47Z"
    transform="translate(-1.73 -2.19)" />
  <path class="cls-1"
    d="M183,15.23h5.76V43H183v-2.3a9.52,9.52,0,0,1-4.11,2l-.31.05a15.59,15.59,0,0,1-5.67,0l-.31-.05a11.5,11.5,0,0,1-7.2-4.57,14.75,14.75,0,0,1-2.66-9,14.93,14.93,0,0,1,2.66-9.1,11.44,11.44,0,0,1,7.28-4.5l.29-.09a16.86,16.86,0,0,1,5.55,0l.29.09a9.43,9.43,0,0,1,4.19,2Zm0,13.86a9.56,9.56,0,0,0-1.39-5.47Q179.77,21,175.72,21t-5.9,2.66a9.87,9.87,0,0,0-1.36,5.5,9.69,9.69,0,0,0,1.36,5.47c1.21,1.8,3.18,2.69,5.9,2.69s4.65-.88,5.86-2.66A9.53,9.53,0,0,0,183,29.15Z"
    transform="translate(-1.73 -2.19)" />
  <path class="cls-1"
    d="M194.93,21H191V15.2H195a13.74,13.74,0,0,1,3.77-9.49,12.42,12.42,0,0,1,9.21-3.52V7.92a6.71,6.71,0,0,0-5.61,2.32,8.62,8.62,0,0,0-1.65,5h3.52V21h-3.52V43h-5.75Z"
    transform="translate(-1.73 -2.19)" />
  <rect id="rectangle" class="cls-2" x="171.67" y="23.04" width="5.75" height="52.28"
    transform="translate(123.64 221.53) rotate(-90)" />
</svg>
