<svg width="90" height="159" viewBox="0 0 90 159" fill="none" stroke="none" xmlns="http://www.w3.org/2000/svg"><path d="M56.7799 12H32.8726V10.25H56.7799V12Z" fill="#757575" fill-opacity="1"></path><path fill-rule="evenodd" clip-rule="evenodd" d="M50.94 147.02C50.94 150.593 48.0433 153.49 44.47 153.49C40.8967 153.49 38 150.593 38 147.02C38 143.446 40.8967 140.55 44.47 140.55C48.0433 140.55 50.94 143.446 50.94 147.02ZM49.19 147.02C49.19 149.626 47.0768 151.74 44.47 151.74C41.8632 151.74 39.75 149.626 39.75 147.02C39.75 144.413 41.8632 142.3 44.47 142.3C47.0768 142.3 49.19 144.413 49.19 147.02Z" fill="#757575" fill-opacity="1"></path><path fill-rule="evenodd" clip-rule="evenodd" d="M0 7C0 3.13401 3.13401 0 7 0H83C86.866 0 90 3.13401 90 7V152C90 155.866 86.866 159 83 159H7C3.13401 159 0 155.866 0 152V7ZM83 1.75H7C4.10051 1.75 1.75 4.10051 1.75 7V20.6631H88.25V7C88.25 4.10051 85.8995 1.75 83 1.75ZM88.25 22.4131H1.75V134.679H88.25V22.4131ZM88.25 136.429H1.75V152C1.75 154.899 4.10051 157.25 7 157.25H83C85.8995 157.25 88.25 154.899 88.25 152V136.429Z" fill="#757575" fill-opacity="1"></path></svg>
